<svg width="640" height="640" viewBox="0 0 640 640" fill="none" xmlns="http://www.w3.org/2000/svg">
<path d="M524.531 133.836C524.368 133.519 524.097 133.271 523.767 133.136C485.644 115.645 445.413 103.172 404.081 96.03C403.706 95.9602 403.318 96.0106 402.972 96.1739C402.627 96.3373 402.342 96.6054 402.158 96.94C396.68 106.883 391.707 117.096 387.258 127.54C342.705 120.777 297.386 120.777 252.832 127.54C248.354 117.069 243.301 106.854 237.697 96.94C237.505 96.6126 237.219 96.3507 236.875 96.1884C236.532 96.0261 236.148 95.9709 235.773 96.03C194.437 103.157 154.203 115.631 116.085 133.137C115.759 133.275 115.483 133.512 115.297 133.813C39.0681 247.651 18.1861 358.69 28.4301 468.354C28.4589 468.623 28.5415 468.883 28.6729 469.119C28.8043 469.355 28.9819 469.563 29.1951 469.729C73.5825 502.595 123.23 527.681 176.02 543.918C176.392 544.029 176.789 544.024 177.158 543.904C177.526 543.783 177.849 543.552 178.083 543.242C189.421 527.815 199.468 511.479 208.12 494.4C208.239 494.166 208.307 493.909 208.319 493.646C208.332 493.384 208.288 493.122 208.192 492.877C208.096 492.633 207.949 492.411 207.761 492.228C207.573 492.044 207.348 491.902 207.101 491.812C191.259 485.75 175.921 478.443 161.233 469.959C160.966 469.802 160.742 469.582 160.581 469.318C160.419 469.054 160.325 468.754 160.307 468.445C160.288 468.136 160.346 467.828 160.476 467.546C160.605 467.265 160.802 467.02 161.048 466.833C164.13 464.524 167.214 462.122 170.157 459.696C170.419 459.481 170.735 459.343 171.071 459.297C171.406 459.252 171.748 459.302 172.057 459.44C268.286 503.357 372.467 503.357 467.557 459.44C467.867 459.293 468.212 459.236 468.553 459.278C468.893 459.319 469.215 459.456 469.481 459.673C472.425 462.099 475.508 464.524 478.613 466.833C478.861 467.018 479.059 467.262 479.191 467.542C479.322 467.822 479.382 468.13 479.366 468.439C479.35 468.748 479.258 469.048 479.099 469.314C478.939 469.579 478.717 469.8 478.451 469.959C463.796 478.515 448.445 485.817 432.561 491.789C432.314 491.883 432.09 492.028 431.904 492.214C431.717 492.401 431.571 492.624 431.477 492.871C431.383 493.117 431.341 493.381 431.356 493.644C431.37 493.908 431.44 494.165 431.561 494.4C440.358 511.384 450.39 527.699 461.575 543.215C461.802 543.533 462.123 543.772 462.494 543.898C462.864 544.023 463.264 544.029 463.638 543.915C516.522 527.733 566.257 502.644 610.7 469.729C610.917 469.571 611.097 469.369 611.229 469.136C611.361 468.902 611.441 468.644 611.465 468.377C623.729 341.594 590.933 231.465 524.531 133.836ZM222.491 401.58C193.519 401.58 169.647 374.993 169.647 342.341C169.647 309.689 193.056 283.1 222.491 283.1C252.156 283.1 275.797 309.92 275.334 342.339C275.334 374.993 251.924 401.58 222.491 401.58ZM417.871 401.58C388.9 401.58 365.028 374.993 365.028 342.341C365.028 309.689 388.437 283.1 417.871 283.1C447.538 283.1 471.178 309.92 470.715 342.339C470.715 374.993 447.538 401.58 417.871 401.58Z" fill="white"/>
</svg>
